<svg xmlns="http://www.w3.org/2000/svg" xmlns:xlink="http://www.w3.org/1999/xlink" preserveAspectRatio="xMidYMid" width="1500" height="500" viewBox="0 0 4368 1495">
  <defs>
    <style>
      .cls-1 {
        fill: #7a40cf;
        fill-rule: evenodd;
      }
    </style>
  </defs>
  <path d="M3444.741,203.894 C3409.218,203.098 3376.357,167.784 3367.076,139.995 C3355.726,106.013 3378.943,58.064 3397.552,45.620 C3414.481,34.300 3440.358,38.244 3457.521,45.620 C3482.170,56.215 3501.177,69.474 3526.339,80.028 C3535.655,83.935 3553.016,90.741 3568.612,86.909 C3606.039,77.715 3634.816,57.594 3663.973,39.722 C3682.591,28.311 3701.582,20.959 3722.960,12.196 C3748.988,1.527 3796.118,-5.337 3829.135,5.315 C3845.913,10.727 3862.776,16.955 3876.324,25.959 C3910.844,48.900 3929.578,85.982 3947.108,126.232 C3960.634,157.289 3971.409,191.156 3981.517,226.505 C3986.758,244.836 3986.938,264.595 3991.348,283.523 C3995.395,300.895 3992.942,345.863 3989.381,361.185 C3985.139,379.439 3987.924,396.749 3983.483,414.271 C3974.621,449.237 3969.686,483.802 3956.939,514.544 C3942.908,548.380 3924.322,576.855 3903.851,604.003 C3895.312,615.327 3875.333,624.312 3875.341,642.342 C3879.518,649.557 3878.698,665.938 3881.240,674.784 C3887.466,695.754 3893.693,716.730 3899.919,737.700 C3930.810,812.630 3957.278,887.711 3997.246,952.992 C4002.500,961.574 4005.679,970.097 4011.010,978.552 C4018.821,990.941 4028.968,1002.446 4037.554,1013.942 C4044.098,1022.704 4051.808,1032.739 4064.097,1035.570 C4066.108,1026.629 4071.149,1019.209 4074.912,1011.976 C4091.861,979.396 4112.745,952.664 4150.611,941.195 C4165.782,936.600 4187.797,932.514 4205.665,938.246 C4220.497,943.004 4233.620,951.343 4244.989,959.873 C4266.801,976.238 4280.591,1001.886 4295.127,1025.739 C4322.124,1070.039 4336.591,1123.762 4352.147,1180.080 C4359.712,1207.467 4359.610,1236.943 4365.911,1265.607 C4366.239,1273.471 4366.566,1281.337 4366.894,1289.201 C4368.572,1297.131 4367.876,1309.140 4367.877,1318.693 C4367.883,1357.485 4363.914,1389.911 4352.147,1417.000 C4335.059,1456.341 4295.709,1483.344 4248.921,1493.679 C4229.678,1497.930 4204.156,1490.908 4191.901,1486.798 C4145.406,1471.201 4111.750,1444.999 4080.810,1414.051 C3965.768,1298.976 3882.532,1145.790 3821.270,977.569 C3815.536,961.821 3813.831,946.466 3808.490,930.381 C3793.798,886.135 3782.389,838.383 3765.233,796.684 C3759.215,782.057 3749.397,745.036 3733.774,742.615 C3728.833,749.242 3719.681,752.203 3716.078,760.311 C3707.041,780.644 3715.684,824.813 3720.994,841.905 C3731.011,874.149 3740.356,903.033 3756.385,929.398 C3772.547,955.981 3790.842,984.026 3803.574,1012.959 C3818.923,1047.836 3831.575,1101.301 3796.693,1126.012 C3776.849,1140.069 3762.551,1126.584 3749.504,1117.164 C3728.472,1101.980 3711.294,1085.720 3685.602,1074.892 C3677.895,1071.645 3664.137,1065.978 3651.193,1068.994 C3619.973,1076.268 3608.344,1097.395 3586.308,1113.232 C3577.377,1119.650 3562.081,1127.610 3546.001,1121.096 C3539.043,1118.278 3534.656,1113.340 3529.288,1109.300 C3523.089,1104.634 3515.876,1098.984 3511.592,1092.587 C3500.648,1076.246 3494.590,1031.249 3501.761,1006.077 C3513.799,963.824 3533.243,932.268 3545.018,888.109 C3547.934,877.173 3553.387,852.236 3549.933,836.990 C3545.815,818.815 3546.611,800.949 3542.068,782.921 C3538.315,768.026 3538.301,751.588 3534.203,735.734 C3519.795,679.991 3517.798,618.585 3503.727,562.714 C3496.443,533.791 3497.418,504.102 3489.964,475.221 C3480.873,440.001 3479.230,400.555 3470.302,365.117 C3468.991,355.288 3467.680,345.455 3466.369,335.625 C3460.633,313.307 3460.452,288.416 3454.572,264.845 C3449.946,246.304 3445.406,224.446 3444.741,203.894 ZM3769.166,15.145 C3764.290,18.021 3756.401,16.397 3750.487,18.095 C3736.969,21.974 3723.661,26.350 3711.163,31.858 C3691.266,40.624 3672.106,53.239 3654.142,64.299 C3638.526,73.914 3622.883,80.525 3605.970,88.875 C3594.101,94.736 3568.305,106.911 3546.984,101.655 C3514.761,93.713 3490.354,81.448 3465.386,66.265 C3454.436,59.606 3435.447,47.649 3416.231,53.485 C3391.269,61.066 3369.589,109.534 3383.788,141.961 C3395.675,169.108 3420.095,184.043 3452.606,191.114 C3463.587,207.036 3460.064,225.008 3465.386,246.166 C3473.469,278.304 3475.029,314.294 3483.082,346.439 C3484.393,356.269 3485.704,366.101 3487.014,375.931 C3494.437,405.469 3496.332,438.815 3503.727,468.340 C3504.710,476.203 3505.694,484.069 3506.677,491.933 C3511.774,512.237 3511.990,534.456 3517.491,555.833 C3522.186,574.079 3522.343,594.443 3527.322,613.834 C3542.218,671.847 3544.152,735.428 3558.781,793.735 C3562.254,807.575 3561.573,821.214 3564.680,835.024 C3568.321,851.207 3562.972,877.709 3559.764,889.092 C3556.755,899.771 3556.794,908.883 3552.882,918.584 C3541.706,946.305 3528.845,972.604 3518.474,1001.162 C3509.640,1025.486 3512.669,1068.073 3525.356,1085.706 C3529.615,1089.638 3533.876,1093.571 3538.136,1097.503 C3556.825,1114.806 3570.844,1108.861 3586.308,1093.571 C3600.818,1079.223 3633.861,1045.841 3668.889,1054.248 C3700.131,1061.746 3719.756,1075.404 3741.639,1091.604 C3752.809,1099.874 3763.181,1116.485 3780.963,1117.164 C3789.960,1110.278 3797.958,1105.782 3802.591,1094.554 C3810.733,1074.825 3799.663,1041.222 3793.743,1027.705 C3779.864,996.013 3761.170,966.030 3743.605,937.263 C3726.807,909.750 3715.503,877.154 3705.264,843.871 C3704.281,837.646 3703.298,831.419 3702.315,825.193 C3693.780,793.039 3695.566,753.324 3717.061,737.700 C3721.657,734.360 3724.459,729.588 3731.808,728.852 C3738.377,725.098 3745.028,731.232 3748.521,733.768 C3760.410,742.401 3764.863,756.742 3771.132,771.124 C3797.429,831.451 3811.157,899.905 3833.068,965.772 C3845.989,1004.617 3862.672,1041.334 3878.290,1076.858 C3889.096,1101.434 3899.345,1125.709 3912.699,1147.639 C3916.165,1153.330 3917.105,1159.639 3920.564,1165.334 C3935.236,1189.496 3947.749,1215.080 3962.838,1239.065 C3999.609,1297.515 4040.101,1351.721 4087.692,1399.305 C4117.268,1428.876 4146.789,1452.499 4188.952,1470.085 C4201.144,1475.171 4227.369,1483.607 4247.938,1478.933 C4322.730,1461.939 4353.118,1409.321 4353.131,1316.727 C4353.133,1300.566 4354.414,1282.058 4351.164,1267.573 C4344.670,1238.629 4345.178,1208.742 4337.401,1181.064 C4319.815,1118.478 4302.236,1061.417 4270.550,1013.942 C4247.632,979.606 4206.943,931.439 4146.678,956.924 C4125.824,965.743 4104.043,989.257 4092.608,1008.044 C4084.166,1021.911 4080.751,1038.087 4069.996,1049.332 C4030.433,1051.364 4005.009,994.608 3988.398,967.738 C3946.984,900.743 3917.425,824.795 3888.122,745.565 C3875.162,710.525 3859.057,670.262 3861.578,624.647 C3870.684,618.058 3879.349,608.096 3886.155,599.088 C3894.927,587.478 3906.659,577.318 3914.665,564.680 C3932.876,535.935 3945.382,502.870 3956.939,467.356 C3964.714,443.463 3964.621,419.142 3970.702,392.643 C3976.365,367.969 3981.983,313.236 3975.618,285.489 C3975.290,279.919 3974.963,274.347 3974.635,268.777 C3972.179,258.620 3971.791,247.094 3968.736,236.336 C3960.089,205.886 3951.662,175.762 3940.226,148.843 C3906.836,70.244 3882.211,15.013 3769.166,15.145 ZM3769.166,28.908 C3797.427,28.601 3819.844,30.425 3838.966,38.739 C3884.137,58.379 3902.904,96.587 3922.530,141.961 C3932.642,165.339 3941.716,191.032 3950.057,216.674 C3955.431,233.195 3956.747,251.684 3960.871,268.777 C3965.968,289.898 3965.626,338.395 3960.871,359.219 C3957.578,373.645 3960.315,386.528 3956.939,400.508 C3948.103,437.099 3943.655,472.401 3930.395,503.730 C3918.508,531.815 3903.307,557.523 3886.155,580.409 C3873.878,596.792 3852.558,605.889 3846.831,628.580 C3842.589,645.388 3855.734,686.715 3859.611,699.360 C3866.337,721.296 3869.858,741.799 3878.290,762.277 C3893.250,798.603 3908.176,835.665 3923.513,870.414 C3946.691,922.925 3972.059,971.767 4003.145,1015.908 C4018.048,1037.070 4031.545,1057.550 4061.148,1064.078 C4066.719,1063.096 4072.291,1062.112 4077.861,1061.129 C4080.953,1056.672 4086.723,1053.989 4089.658,1049.332 C4096.035,1039.218 4097.373,1026.847 4103.422,1016.891 C4114.592,998.506 4130.288,980.658 4149.628,970.687 C4205.345,941.962 4245.222,999.334 4264.651,1030.654 C4291.584,1074.070 4308.087,1125.500 4323.637,1181.064 C4331.392,1208.772 4330.897,1238.574 4337.401,1267.573 C4340.544,1281.591 4339.364,1296.641 4339.367,1311.812 C4339.383,1389.550 4325.086,1426.210 4276.448,1455.339 C4262.115,1463.924 4230.188,1470.050 4207.631,1463.204 C4162.125,1449.393 4127.383,1420.323 4097.523,1390.457 C4060.820,1353.747 4025.571,1312.337 3997.246,1267.573 C3984.459,1247.365 3973.529,1227.270 3960.871,1206.623 C3909.872,1123.434 3870.475,1032.529 3837.000,931.364 C3819.208,877.596 3807.747,822.381 3786.862,773.090 C3776.046,747.566 3768.034,721.007 3738.689,714.106 C3725.951,711.111 3716.339,721.414 3710.179,725.903 C3690.706,740.097 3677.725,769.639 3685.602,804.549 C3685.929,809.791 3686.257,815.035 3686.585,820.278 C3695.117,854.239 3703.403,884.873 3716.078,913.669 C3734.074,954.554 3762.043,989.627 3779.980,1030.654 C3785.899,1044.192 3803.505,1099.060 3776.047,1102.418 C3769.671,1094.403 3755.125,1086.150 3746.554,1079.808 C3717.413,1058.243 3677.192,1026.285 3624.649,1046.383 C3609.312,1052.250 3595.243,1065.957 3584.342,1076.858 C3576.866,1084.334 3571.390,1094.217 3556.815,1094.554 C3550.325,1088.597 3539.554,1083.615 3535.187,1075.875 C3522.058,1052.608 3528.102,1013.718 3537.153,992.315 C3546.975,969.088 3557.024,946.881 3565.663,923.500 C3569.860,912.140 3570.171,901.325 3573.528,889.092 C3576.670,877.642 3582.073,851.178 3578.443,835.024 C3576.150,819.296 3573.855,803.564 3571.562,787.836 C3555.560,724.007 3553.055,653.990 3537.153,590.240 C3530.896,565.158 3531.804,539.611 3525.356,514.544 C3514.404,471.970 3512.416,424.537 3501.761,381.830 C3500.123,370.034 3498.484,358.235 3496.845,346.439 C3490.228,319.945 3489.926,291.354 3483.082,263.861 C3478.744,246.437 3478.686,227.505 3474.234,208.810 C3472.796,202.773 3470.869,196.748 3470.302,190.131 C3465.881,187.127 3463.282,180.912 3458.504,178.335 C3450.968,176.696 3443.429,175.058 3435.893,173.419 C3418.426,166.046 3384.659,138.619 3392.636,107.554 C3394.178,101.551 3397.883,95.773 3400.501,90.842 C3404.336,83.617 3408.171,72.031 3416.231,69.214 C3428.820,59.065 3450.002,73.582 3458.504,78.062 C3476.535,87.561 3493.522,98.661 3512.575,106.571 C3519.356,109.385 3525.743,109.258 3533.220,111.486 C3541.514,113.957 3556.970,118.544 3569.595,115.418 C3608.514,105.783 3637.881,90.588 3667.906,72.163 C3681.172,64.022 3695.612,54.025 3710.179,47.587 C3723.167,41.846 3736.722,36.099 3750.487,31.858 C3756.302,30.066 3764.422,31.906 3769.166,28.908 ZM3203.880,37.756 C3219.860,37.524 3232.088,40.913 3241.238,47.587 C3260.878,61.910 3271.624,116.330 3261.883,150.809 C3255.389,173.795 3245.359,193.160 3238.289,214.708 C3235.995,226.831 3233.701,238.958 3231.407,251.082 C3231.079,257.635 3230.752,264.190 3230.424,270.743 C3226.449,289.080 3228.646,336.588 3232.390,353.321 C3235.669,367.974 3233.256,384.021 3236.322,397.559 C3240.508,416.032 3237.015,433.346 3241.238,451.627 C3244.659,466.439 3243.397,482.959 3247.137,498.815 C3258.637,547.581 3258.073,601.209 3269.748,649.224 C3270.731,657.743 3271.714,666.265 3272.697,674.784 C3281.579,710.160 3282.529,749.632 3291.376,784.887 C3295.013,799.377 3293.838,813.736 3298.258,827.159 C3304.287,845.468 3314.529,859.635 3323.819,874.346 C3338.523,897.631 3354.110,922.204 3365.109,948.077 C3384.732,994.232 3388.331,1097.624 3343.481,1116.181 C3324.200,1124.159 3293.229,1115.409 3278.596,1108.317 C3260.637,1099.612 3245.896,1090.708 3230.424,1079.808 C3209.833,1065.300 3190.626,1047.538 3162.590,1040.485 C3149.081,1037.087 3140.261,1044.914 3134.079,1049.332 C3118.924,1060.165 3106.880,1074.109 3091.806,1084.723 C3051.950,1112.787 2973.285,1136.313 2908.948,1115.198 C2798.322,1078.890 2740.739,995.939 2704.462,885.160 C2697.099,862.673 2695.311,838.121 2689.716,814.379 C2689.060,806.516 2688.405,798.649 2687.749,790.786 C2685.417,780.319 2686.242,766.182 2683.817,755.395 C2683.817,748.514 2683.817,741.632 2683.817,734.751 C2680.730,720.445 2680.636,683.158 2683.817,668.885 C2686.966,654.754 2682.954,639.290 2685.783,626.613 C2686.111,617.439 2686.439,608.262 2686.766,599.088 C2694.287,565.729 2690.277,527.824 2698.564,495.865 C2710.943,448.123 2719.518,402.469 2736.905,360.202 C2746.155,337.716 2753.900,314.472 2763.449,291.387 C2769.623,276.460 2777.780,260.439 2782.128,244.200 C2780.489,244.200 2778.850,244.200 2777.212,244.200 C2774.069,246.264 2769.849,245.088 2765.415,246.166 C2747.149,250.607 2726.107,251.206 2712.327,242.234 C2674.879,217.851 2663.749,149.180 2685.783,98.706 C2689.709,89.713 2696.136,80.027 2702.496,73.146 C2707.456,67.780 2712.648,61.036 2719.209,57.417 C2749.759,40.567 2772.318,69.034 2785.077,85.926 C2790.580,93.213 2798.886,98.511 2806.705,103.621 C2812.914,107.680 2824.172,113.780 2837.182,110.503 C2868.143,102.704 2880.611,73.000 2904.033,57.417 C2914.790,50.260 2933.344,46.383 2946.306,54.468 C2986.053,79.259 2974.736,148.879 2957.120,189.148 C2949.013,207.682 2936.780,225.693 2928.610,244.200 C2919.231,265.449 2909.940,286.728 2901.083,308.100 C2887.485,340.913 2882.037,373.713 2872.573,411.322 C2866.502,435.449 2860.318,488.253 2866.675,516.510 C2867.002,523.063 2867.330,529.618 2867.658,536.171 C2871.854,554.121 2872.905,573.100 2878.472,590.240 C2896.113,644.554 2911.481,681.592 2965.968,699.360 C3007.593,712.935 3053.375,695.963 3077.059,678.716 C3084.755,673.112 3095.745,666.032 3097.705,655.122 C3095.190,650.949 3097.593,642.270 3096.721,636.444 C3095.120,625.740 3097.261,611.339 3094.755,600.071 C3090.823,545.024 3086.890,489.962 3082.958,434.915 C3080.007,421.808 3082.233,406.759 3079.026,392.643 C3076.313,380.705 3078.074,367.288 3075.093,354.304 C3066.855,318.414 3068.279,279.003 3057.397,246.166 C3050.396,225.038 3041.313,204.376 3029.870,187.182 C3021.573,174.714 3009.438,164.350 3004.310,148.843 C2995.741,122.932 3006.697,72.888 3023.972,64.299 C3028.231,63.971 3032.492,63.643 3036.752,63.316 C3042.394,67.319 3049.823,68.454 3055.431,72.163 C3067.029,79.834 3091.499,104.589 3109.502,102.638 C3136.680,99.693 3148.150,61.366 3167.505,47.587 C3174.369,42.700 3184.605,40.960 3194.049,38.739 C3197.605,37.903 3201.511,39.229 3203.880,37.756 ZM1775.427,48.570 C1833.301,47.172 1804.449,117.265 1789.191,139.012 C1763.155,176.120 1726.278,202.218 1700.711,240.268 C1695.473,248.065 1687.147,254.877 1683.015,263.861 C1673.362,284.856 1676.956,311.789 1671.218,337.592 C1670.891,346.111 1670.563,354.632 1670.235,363.151 C1662.143,399.733 1668.550,445.520 1660.404,482.102 C1658.321,491.456 1660.265,501.427 1658.438,509.628 C1655.349,523.489 1658.324,538.198 1655.489,550.917 C1651.453,569.021 1655.483,591.323 1651.556,608.918 C1650.901,623.990 1650.245,639.067 1649.590,654.139 C1647.290,664.809 1650.181,677.578 1647.624,689.530 C1644.979,701.890 1644.448,725.975 1647.624,737.700 C1651.461,751.867 1659.755,760.138 1667.286,770.141 C1673.649,778.594 1681.758,786.215 1690.880,791.769 C1709.029,802.818 1739.847,803.786 1760.681,794.718 C1797.213,778.818 1817.017,742.106 1850.143,721.971 C1871.244,709.145 1923.029,701.207 1933.707,729.836 C1939.914,746.475 1932.954,770.454 1928.792,783.904 C1916.748,822.824 1903.566,857.301 1888.485,892.042 C1874.447,924.377 1864.654,959.520 1852.110,993.298 C1841.924,1020.725 1834.127,1048.221 1812.785,1064.078 C1772.605,1093.933 1676.736,1088.650 1606.333,1088.655 C1590.143,1088.656 1569.590,1090.853 1555.212,1087.672 C1544.761,1085.360 1531.021,1088.731 1521.786,1086.689 C1515.888,1086.689 1509.988,1086.689 1504.090,1086.689 C1478.016,1086.692 1448.648,1094.613 1427.408,1085.706 C1392.811,1071.197 1392.692,1011.616 1411.678,980.518 C1429.768,950.887 1453.128,924.853 1464.766,889.092 C1471.108,869.606 1470.389,849.329 1475.580,829.125 C1487.352,783.309 1487.224,730.511 1498.192,683.631 C1501.686,668.694 1500.844,653.274 1504.090,639.393 C1507.801,623.526 1506.594,607.025 1509.989,592.206 C1515.528,568.031 1512.535,541.217 1517.854,517.493 C1521.458,472.932 1525.064,428.357 1528.668,383.796 C1530.306,350.047 1531.945,316.288 1533.583,282.540 C1536.443,269.387 1538.171,231.346 1534.567,219.623 C1527.434,196.428 1497.070,182.819 1508.023,148.843 C1509.989,143.600 1511.955,138.356 1513.921,133.113 C1524.605,115.814 1560.798,103.724 1592.570,111.486 C1609.146,115.536 1628.761,125.790 1650.573,120.334 C1690.766,110.278 1714.943,87.728 1743.968,67.248 C1750.503,62.637 1757.124,57.505 1763.630,53.485 C1767.232,51.260 1772.196,51.119 1775.427,48.570 ZM3206.829,52.502 C3204.256,54.115 3199.833,52.626 3196.015,53.485 C3187.884,55.314 3180.073,57.143 3174.387,61.350 C3157.080,74.155 3150.503,96.869 3131.130,109.520 C3125.964,112.893 3115.364,119.561 3105.569,117.384 C3086.384,113.121 3073.103,104.445 3059.363,94.774 C3050.967,88.864 3043.665,79.345 3030.853,78.062 C3029.850,78.852 3030.584,78.411 3028.887,79.045 C3025.918,84.809 3022.197,91.051 3020.039,97.723 C3005.618,142.307 3031.619,161.957 3047.566,187.182 C3055.425,199.614 3061.521,214.535 3067.228,228.471 C3075.919,249.695 3077.221,275.278 3082.958,299.252 C3083.613,306.460 3084.269,313.671 3084.924,320.879 C3088.497,336.156 3088.251,355.394 3091.806,371.016 C3091.806,374.292 3091.806,377.570 3091.806,380.847 C3094.674,393.597 3092.612,408.130 3095.738,422.135 C3098.076,432.606 3096.092,444.856 3098.688,456.543 C3105.047,485.179 3102.770,517.276 3105.569,547.968 C3107.391,567.948 3106.156,594.520 3110.485,613.834 C3110.485,619.731 3110.485,625.631 3110.485,631.529 C3111.753,640.130 3114.492,655.911 3111.468,663.970 C3109.139,670.175 3102.170,676.208 3097.705,680.682 C3080.931,697.489 3060.241,707.679 3033.803,715.089 C3024.300,716.400 3014.795,717.711 3005.293,719.022 C3001.973,719.756 2997.259,718.442 2995.462,718.039 C2989.564,717.711 2983.664,717.383 2977.766,717.056 C2956.918,711.732 2940.525,705.878 2925.661,695.428 C2909.280,683.911 2896.940,671.291 2886.337,654.139 C2878.056,640.744 2875.008,625.276 2869.624,608.918 C2849.731,548.475 2842.296,454.017 2861.759,385.762 C2875.523,337.493 2890.233,293.637 2908.948,251.082 C2923.005,219.120 2941.728,190.758 2953.188,155.724 C2963.657,123.721 2961.328,73.436 2932.543,64.299 C2918.521,59.848 2906.334,77.271 2900.100,81.994 C2879.510,97.594 2855.165,136.549 2814.570,124.266 C2795.205,118.406 2778.338,103.367 2767.381,88.875 C2759.121,77.950 2752.369,67.283 2732.972,67.248 C2729.390,70.568 2724.101,72.155 2720.192,75.113 C2711.603,81.610 2703.016,96.234 2698.564,106.571 C2680.756,147.914 2689.525,212.769 2721.175,231.420 C2737.565,241.079 2769.573,229.233 2789.992,230.437 C2791.723,233.025 2794.597,236.151 2796.874,238.302 C2797.521,252.975 2790.051,264.699 2785.077,276.641 C2778.937,291.382 2774.281,305.945 2768.364,319.896 C2746.725,370.921 2731.647,423.707 2716.260,481.119 C2709.896,504.864 2710.946,530.317 2705.445,554.849 C2702.816,566.575 2704.869,578.654 2702.496,589.257 C2701.841,602.691 2701.185,616.129 2700.530,629.563 C2697.594,643.193 2701.786,659.647 2698.564,674.784 C2695.593,688.739 2695.478,715.896 2698.564,729.836 C2698.564,737.372 2698.564,744.910 2698.564,752.446 C2701.743,766.639 2700.353,784.104 2703.479,797.667 C2704.135,804.876 2704.790,812.086 2705.445,819.295 C2710.945,841.817 2713.180,865.052 2720.192,886.143 C2749.768,975.106 2798.234,1052.659 2880.438,1088.655 C2894.662,1094.883 2910.279,1100.061 2925.661,1104.384 C2934.509,1106.871 2944.495,1106.373 2953.188,1108.317 C2966.048,1111.192 2983.598,1107.712 2993.495,1105.367 C3009.605,1101.551 3022.812,1101.671 3036.752,1096.520 C3061.901,1087.226 3081.192,1072.872 3100.654,1058.180 C3114.333,1047.854 3131.823,1022.473 3156.691,1024.756 C3180.994,1026.987 3198.645,1039.607 3214.694,1050.316 C3235.600,1064.265 3254.605,1077.396 3276.630,1090.621 C3286.314,1096.436 3319.429,1109.935 3337.582,1102.418 C3377.371,1085.943 3363.433,981.246 3348.397,947.093 C3330.707,906.914 3298.632,876.232 3284.495,833.058 C3275.302,804.985 3277.011,773.462 3269.748,743.598 C3255.834,686.384 3255.049,622.620 3241.238,564.680 C3236.712,545.695 3237.601,525.712 3233.373,507.662 C3227.822,483.961 3229.776,458.890 3224.525,435.898 C3221.904,409.358 3219.282,382.810 3216.660,356.270 C3214.389,346.109 3216.738,334.966 3214.694,325.795 C3212.466,315.796 3213.733,277.454 3215.677,268.777 C3215.677,265.173 3215.677,261.567 3215.677,257.963 C3219.372,241.622 3219.512,224.191 3224.525,208.810 C3232.169,185.356 3242.835,165.312 3249.103,139.012 C3255.948,110.290 3244.524,67.564 3229.441,57.417 C3224.169,53.871 3215.045,52.769 3206.829,52.502 ZM1127.561,61.350 C1163.918,60.937 1189.588,72.558 1211.125,86.909 C1258.956,118.784 1291.047,167.237 1315.334,222.573 C1326.461,247.925 1336.651,275.900 1345.810,304.167 C1354.516,331.035 1356.649,360.420 1363.506,388.711 C1366.127,413.285 1368.750,437.867 1371.371,462.441 C1371.371,468.011 1371.371,473.583 1371.371,479.153 C1373.153,487.465 1370.322,500.083 1372.354,509.628 C1374.223,518.408 1374.294,535.260 1372.354,544.036 C1368.819,560.027 1373.570,577.854 1370.388,592.206 C1369.405,607.278 1368.422,622.355 1367.439,637.427 C1360.051,669.533 1360.398,703.009 1351.709,733.768 C1333.527,798.129 1317.801,858.873 1289.773,912.686 C1276.418,938.328 1260.834,963.324 1244.550,986.416 C1240.407,992.293 1234.088,997.426 1229.804,1003.128 C1194.796,1049.723 1149.794,1080.808 1085.287,1098.486 C1068.498,1103.087 1037.759,1107.334 1016.470,1102.418 C1003.691,1099.797 990.908,1097.175 978.129,1094.554 C943.637,1083.256 912.035,1067.138 885.717,1047.366 C868.476,1034.414 848.283,1004.521 836.561,985.433 C832.827,979.352 831.458,972.930 827.714,966.755 C802.116,924.540 791.533,872.919 777.575,818.312 C775.609,801.601 773.643,784.886 771.677,768.175 C771.677,763.260 771.677,758.344 771.677,753.429 C767.837,742.272 768.730,724.483 768.727,709.191 C768.721,681.724 767.318,652.580 772.660,628.580 C772.987,621.371 773.315,614.161 773.643,606.952 C776.592,584.344 779.542,561.729 782.491,539.120 C796.759,480.887 803.763,423.067 824.764,371.999 C837.808,340.281 849.831,306.890 867.038,278.607 C886.948,245.880 908.518,215.239 930.940,185.216 C936.208,178.162 944.347,172.527 949.619,165.555 C973.080,134.525 1019.148,96.521 1056.777,80.028 C1069.971,74.245 1083.815,69.298 1098.068,65.282 C1104.919,63.351 1122.351,64.615 1127.561,61.350 ZM1777.394,63.316 C1768.883,71.121 1757.293,76.231 1747.900,82.977 C1718.440,104.137 1693.689,124.453 1652.539,135.080 C1627.388,141.575 1603.526,129.769 1583.722,125.249 C1561.301,120.131 1533.739,130.118 1526.702,140.978 C1509.835,167.007 1532.540,183.945 1542.431,199.962 C1544.725,206.188 1547.019,212.415 1549.313,218.640 C1553.076,231.991 1551.520,271.089 1548.330,285.489 C1546.692,319.238 1545.053,352.996 1543.414,386.745 C1539.482,434.583 1535.549,482.435 1531.617,530.273 C1527.024,550.648 1529.626,572.939 1524.735,594.172 C1520.796,611.277 1522.061,630.189 1517.854,648.241 C1506.353,697.586 1507.028,751.990 1495.242,800.616 C1494.915,805.204 1494.587,809.792 1494.259,814.379 C1489.264,834.332 1486.787,856.619 1481.479,876.313 C1478.784,886.309 1479.191,895.054 1475.580,903.838 C1466.178,926.712 1452.047,945.533 1439.205,964.789 C1423.996,987.593 1403.392,1019.089 1418.560,1054.248 C1421.314,1060.631 1424.067,1066.435 1429.374,1069.977 C1438.354,1075.970 1458.368,1075.698 1470.665,1072.926 C1483.268,1070.085 1514.321,1070.179 1526.702,1072.926 C1538.170,1072.926 1549.642,1072.926 1561.110,1072.926 C1579.961,1077.023 1606.204,1073.909 1626.978,1073.909 C1681.651,1073.909 1769.879,1076.866 1800.988,1054.248 C1824.209,1037.365 1832.190,1005.923 1842.279,975.602 C1850.833,949.893 1860.576,922.863 1870.789,898.923 C1887.916,858.773 1904.026,818.405 1916.995,775.057 C1920.210,764.308 1924.351,733.839 1914.045,729.836 C1909.052,725.873 1891.938,722.069 1881.603,724.920 C1861.853,730.369 1845.419,742.830 1832.448,755.395 C1803.866,783.083 1756.849,835.473 1695.796,810.447 C1683.971,805.600 1673.930,798.047 1664.336,790.786 C1662.008,789.023 1661.231,786.299 1659.421,783.904 C1652.942,775.333 1643.499,767.762 1638.776,757.361 C1629.870,737.750 1628.053,694.289 1633.860,667.902 C1634.516,652.175 1635.171,636.443 1635.826,620.715 C1639.775,602.815 1635.627,581.425 1639.759,562.714 C1642.625,549.733 1639.584,534.569 1642.708,520.442 C1645.440,508.092 1642.656,493.702 1645.657,480.136 C1653.886,442.942 1647.299,398.270 1655.489,361.185 C1655.489,356.926 1655.489,352.665 1655.489,348.405 C1661.028,323.455 1656.824,293.278 1664.336,270.743 C1672.657,245.784 1690.970,226.251 1705.627,206.844 C1710.542,202.256 1715.458,197.668 1720.374,193.081 C1738.346,169.344 1761.459,151.605 1778.377,126.232 C1789.608,109.387 1798.929,94.856 1792.140,68.231 C1790.174,66.593 1788.208,64.954 1786.242,63.316 C1783.293,63.316 1780.343,63.316 1777.394,63.316 ZM2292.541,64.299 C2374.443,62.801 2432.098,116.620 2466.551,163.589 C2487.809,192.570 2507.270,223.548 2522.588,258.946 C2540.448,300.221 2548.997,347.510 2561.912,393.626 C2572.202,430.370 2571.781,470.083 2580.591,508.645 C2581.574,524.373 2582.557,540.105 2583.540,555.833 C2584.649,561.016 2583.160,570.062 2584.523,576.477 C2588.622,595.758 2586.475,645.505 2582.557,662.987 C2582.230,669.212 2581.902,675.440 2581.574,681.665 C2576.090,705.140 2576.870,730.752 2570.760,754.412 C2566.691,770.168 2565.553,787.318 2560.929,803.566 C2543.966,863.159 2528.769,920.658 2499.976,967.738 C2461.863,1030.058 2433.333,1063.460 2359.392,1090.621 C2348.216,1094.727 2334.969,1097.371 2322.034,1100.452 C2315.808,1100.780 2309.581,1101.107 2303.355,1101.435 C2297.901,1102.596 2285.758,1103.977 2278.778,1102.418 C2269.348,1100.312 2258.829,1101.053 2249.284,1098.486 C2219.205,1090.395 2193.080,1078.863 2170.636,1063.095 C2110.813,1021.067 2075.085,949.793 2049.714,873.363 C2041.981,850.067 2038.267,824.963 2032.018,800.616 C2025.333,774.571 2027.259,746.003 2021.204,719.022 C2020.876,709.847 2020.548,700.670 2020.221,691.496 C2018.970,685.689 2020.746,675.921 2019.238,668.885 C2016.423,655.752 2016.343,612.174 2019.238,599.088 C2019.238,591.224 2019.238,583.358 2019.238,575.494 C2025.612,546.965 2021.745,513.430 2028.086,486.035 C2029.724,471.618 2031.363,457.197 2033.001,442.780 C2044.375,396.284 2047.770,348.565 2064.460,308.100 C2100.356,221.073 2146.601,143.439 2218.808,92.808 C2232.024,83.541 2249.042,73.699 2265.014,68.231 C2271.852,65.890 2287.110,67.681 2292.541,64.299 ZM3206.829,66.265 C3214.004,66.396 3218.245,68.702 3223.542,70.197 C3227.243,77.268 3231.913,84.115 3234.356,92.808 C3244.882,130.260 3226.664,165.416 3216.660,189.148 C3204.719,217.478 3200.939,257.017 3200.931,296.303 C3201.258,311.703 3201.586,327.107 3201.914,342.507 C3205.190,376.583 3208.468,410.670 3211.745,444.746 C3217.486,469.607 3215.530,496.787 3221.576,522.408 C3225.745,540.077 3224.957,559.782 3229.441,578.443 C3242.797,634.030 3243.602,694.625 3256.968,749.497 C3264.472,780.303 3263.294,812.457 3272.697,840.922 C3278.778,859.329 3289.808,874.153 3299.241,889.092 C3311.114,907.895 3322.374,927.340 3332.667,947.093 C3337.773,956.893 3342.314,968.425 3345.447,979.535 C3351.394,1000.625 3351.820,1064.195 3342.498,1079.808 C3340.169,1083.709 3335.739,1086.404 3332.667,1089.638 C3291.645,1090.551 3273.224,1073.524 3250.086,1057.197 C3223.608,1038.513 3199.974,1021.197 3163.573,1011.976 C3137.774,1005.440 3116.154,1027.807 3104.586,1036.553 C3093.673,1044.803 3084.387,1055.568 3073.127,1063.095 C3055.958,1074.574 3034.173,1083.607 3012.174,1089.638 C2963.526,1102.975 2913.111,1088.998 2880.438,1071.943 C2795.967,1027.850 2754.508,956.515 2726.091,856.651 C2718.128,828.668 2720.148,796.947 2713.310,767.192 C2710.526,755.078 2713.943,741.149 2711.344,729.836 C2709.147,720.274 2710.441,682.067 2712.327,673.801 C2712.327,667.575 2712.327,661.348 2712.327,655.122 C2712.413,642.889 2712.732,626.940 2715.276,615.800 C2715.604,606.953 2715.932,598.104 2716.260,589.257 C2722.231,563.117 2718.798,534.160 2725.108,508.645 C2728.712,490.952 2732.317,473.253 2735.922,455.560 C2747.920,418.849 2759.209,382.249 2773.280,348.405 C2783.970,322.691 2791.189,297.505 2801.790,271.726 C2804.669,264.725 2812.433,252.424 2811.621,243.217 C2810.415,229.558 2802.080,225.118 2794.908,217.657 C2788.215,217.422 2783.101,213.984 2775.246,215.691 C2763.974,218.141 2743.811,224.994 2731.006,220.607 C2721.737,217.431 2714.126,205.754 2710.361,197.013 C2696.029,163.741 2704.604,121.403 2720.192,97.723 C2725.031,90.372 2729.257,81.527 2740.837,81.011 C2762.180,103.945 2796.665,149.525 2842.097,137.046 C2849.606,134.983 2856.754,135.655 2862.742,132.130 C2878.299,122.975 2891.570,109.201 2904.033,96.740 C2911.077,89.696 2917.673,80.010 2929.593,78.062 C2931.982,81.004 2936.355,82.833 2938.441,85.926 C2947.388,99.193 2947.215,130.129 2941.391,147.860 C2928.045,188.485 2906.739,221.504 2890.269,258.946 C2873.309,297.505 2861.341,338.375 2848.979,381.830 C2845.702,399.523 2842.424,417.222 2839.148,434.915 C2838.820,441.468 2838.492,448.023 2838.165,454.577 C2834.379,472.024 2834.207,501.045 2838.165,518.476 C2841.684,533.977 2839.338,547.305 2843.080,561.731 C2852.596,598.419 2859.482,637.537 2877.489,665.936 C2892.566,689.715 2915.909,710.686 2943.357,721.971 C2959.501,728.608 2977.486,728.595 2996.445,732.785 C3006.272,734.957 3025.609,729.914 3032.820,727.869 C3041.385,725.441 3048.430,725.914 3056.414,722.954 C3080.716,713.944 3113.394,693.596 3123.265,670.851 C3127.406,661.312 3126.850,644.015 3124.248,632.512 C3123.921,620.716 3123.593,608.917 3123.265,597.121 C3121.955,579.756 3120.644,562.385 3119.333,545.019 C3118.890,524.536 3118.686,500.991 3114.417,482.102 C3110.693,465.623 3113.943,448.186 3110.485,432.949 C3110.157,425.741 3109.830,418.530 3109.502,411.322 C3106.024,396.004 3107.089,377.266 3103.603,362.168 C3099.187,343.037 3102.201,324.805 3097.705,306.133 C3095.083,290.734 3092.461,275.329 3089.840,259.929 C3084.369,240.510 3078.459,221.432 3071.161,204.877 C3064.197,189.082 3056.918,175.945 3047.566,162.606 C3042.200,154.951 3033.759,147.955 3030.853,138.029 C3026.553,123.339 3033.127,106.232 3035.769,94.774 C3036.424,94.774 3037.080,94.774 3037.735,94.774 C3042.400,100.753 3051.102,104.120 3057.397,108.537 C3081.547,125.481 3111.361,141.961 3142.927,119.351 C3160.124,107.033 3167.108,83.217 3184.218,71.180 C3189.985,67.123 3201.202,69.764 3206.829,66.265 ZM1116.747,77.079 C1111.293,80.324 1102.310,78.967 1096.101,81.011 C1080.355,86.194 1062.565,92.369 1048.912,100.672 C995.081,133.411 950.955,179.683 915.210,230.437 C879.075,281.744 850.487,340.936 828.697,406.406 C819.879,432.899 814.751,460.644 807.068,488.001 C798.570,518.264 798.660,551.037 791.339,582.375 C790.683,591.222 790.028,600.071 789.372,608.918 C787.012,619.602 788.977,632.493 786.423,644.309 C781.515,667.014 781.218,719.135 786.423,740.649 C786.423,748.841 786.423,757.035 786.423,765.226 C791.944,789.737 789.778,815.020 796.254,837.973 C802.703,860.829 807.151,884.457 815.916,905.805 C833.118,947.698 852.706,984.533 877.852,1017.874 C901.290,1048.951 949.423,1069.432 990.909,1082.757 C1003.361,1084.723 1015.816,1086.689 1028.267,1088.655 C1047.692,1093.032 1082.408,1084.974 1095.118,1080.791 C1152.057,1062.052 1191.866,1029.730 1223.905,986.416 C1228.570,980.110 1235.094,974.187 1239.635,967.738 C1260.940,937.481 1279.320,901.918 1294.689,866.482 C1313.353,823.445 1324.314,776.417 1337.945,727.869 C1346.223,698.387 1345.664,666.233 1352.692,635.461 C1353.347,624.648 1354.003,613.832 1354.658,603.020 C1359.627,580.180 1357.602,551.705 1357.608,525.357 C1357.610,511.903 1359.236,494.799 1356.624,483.086 C1356.624,476.860 1356.624,470.633 1356.624,464.407 C1355.020,457.278 1355.237,446.766 1353.675,439.831 C1350.270,424.706 1353.268,411.207 1349.743,396.576 C1345.483,373.967 1341.222,351.352 1336.962,328.744 C1327.072,294.064 1315.847,260.640 1302.554,230.437 C1274.249,166.129 1233.726,102.639 1163.936,80.028 C1150.992,75.834 1133.337,77.068 1116.747,77.079 ZM1906.180,740.649 C1908.756,759.439 1901.694,778.510 1896.349,792.752 C1884.787,823.562 1874.395,852.634 1861.941,881.228 C1847.115,915.268 1837.980,953.454 1823.600,988.382 C1814.558,1010.343 1809.401,1032.125 1791.157,1044.417 C1778.247,1053.116 1762.087,1053.041 1743.968,1057.197 C1737.593,1058.659 1728.501,1056.996 1723.323,1058.180 C1715.131,1058.180 1706.937,1058.180 1698.745,1058.180 C1691.695,1059.751 1680.463,1057.323 1672.201,1059.163 C1654.305,1063.148 1629.095,1060.146 1609.283,1060.146 C1594.049,1060.146 1574.540,1062.234 1561.110,1059.163 C1550.377,1056.709 1536.235,1060.359 1526.702,1058.180 C1519.493,1058.180 1512.282,1058.180 1505.073,1058.180 C1479.260,1058.181 1455.518,1062.525 1435.273,1057.197 C1427.840,1044.948 1423.118,1024.623 1430.357,1008.044 C1444.634,975.344 1470.217,951.134 1484.428,918.584 C1494.278,896.024 1496.298,866.330 1503.107,840.922 C1508.374,821.270 1507.060,801.488 1511.955,780.955 C1522.051,738.607 1521.632,691.088 1531.617,648.241 C1535.232,632.729 1534.194,616.595 1537.516,602.037 C1542.934,578.295 1540.239,553.266 1545.381,530.273 C1545.708,523.064 1546.036,515.854 1546.364,508.645 C1551.128,487.158 1548.425,461.546 1553.246,439.831 C1553.573,431.312 1553.901,422.790 1554.229,414.271 C1560.550,385.368 1554.631,351.100 1561.110,321.862 C1561.438,309.739 1561.766,297.612 1562.093,285.489 C1564.664,273.520 1561.248,259.324 1564.060,246.166 C1564.751,242.931 1566.122,235.201 1565.043,230.437 C1562.142,217.626 1560.360,203.002 1554.229,193.081 C1548.089,183.145 1535.156,175.210 1534.567,160.639 C1536.786,157.318 1538.495,150.596 1539.482,146.876 C1544.440,144.058 1549.986,140.556 1556.195,139.012 C1561.110,139.012 1566.026,139.012 1570.941,139.012 C1599.923,139.019 1622.824,156.500 1652.539,148.843 C1664.849,145.671 1678.611,142.930 1689.897,138.029 C1724.532,122.989 1749.887,95.625 1781.326,77.079 C1781.326,81.993 1781.326,86.910 1781.326,91.825 C1777.793,96.507 1777.550,103.372 1774.444,108.537 C1767.999,119.258 1760.254,129.146 1752.816,139.012 C1744.587,149.927 1731.523,157.680 1723.323,168.504 C1716.351,177.707 1706.507,184.128 1699.728,193.081 C1686.828,210.119 1671.706,226.933 1660.404,245.183 C1640.144,277.899 1649.354,330.067 1639.759,373.965 C1639.431,382.484 1639.103,391.006 1638.776,399.525 C1632.259,429.360 1637.432,464.064 1630.911,493.899 C1630.583,503.074 1630.255,512.251 1629.928,521.425 C1626.188,538.672 1628.808,560.101 1625.012,577.460 C1625.012,582.047 1625.012,586.636 1625.012,591.223 C1622.044,605.024 1625.195,621.775 1622.063,636.444 C1620.040,645.916 1622.359,657.250 1620.097,667.902 C1614.298,695.204 1616.177,739.399 1625.012,760.311 C1634.518,782.809 1656.116,804.003 1676.134,816.345 C1684.552,821.536 1695.260,824.211 1705.627,827.159 C1762.533,843.345 1809.263,798.014 1835.397,772.107 C1854.228,753.440 1869.437,735.880 1906.180,740.649 ZM466.914,79.045 C526.584,78.045 542.322,115.300 589.802,126.232 C622.334,133.722 649.481,97.703 666.484,85.926 C678.950,77.293 699.655,79.890 710.724,87.892 C730.983,102.539 727.649,133.356 717.606,157.690 C711.862,171.606 704.662,186.019 698.927,199.962 C692.925,214.552 691.135,232.554 687.129,248.132 C683.522,262.159 684.723,275.048 681.231,289.421 C667.356,346.523 669.547,396.805 625.194,424.101 C618.038,428.505 607.220,430.349 597.667,431.966 C554.882,439.206 540.077,426.309 529.833,394.609 C521.103,367.596 525.553,331.237 511.154,310.066 C504.948,300.942 493.211,299.450 480.677,296.303 C473.444,294.486 463.737,293.242 455.116,295.320 C406.845,306.956 382.938,342.978 359.755,379.863 C328.652,429.352 309.822,488.482 290.938,550.917 C282.313,579.431 281.656,609.141 274.225,639.393 C264.715,678.112 258.804,737.881 269.310,779.972 C272.361,792.196 271.636,803.896 277.174,813.396 C298.557,850.073 346.000,859.016 392.198,838.956 C462.177,808.569 471.489,721.397 520.985,670.851 C530.187,661.454 541.479,651.709 554.410,646.275 C585.168,633.349 609.950,653.798 620.278,673.801 C629.354,691.376 636.287,739.638 630.109,766.209 C617.737,819.425 609.687,872.037 593.734,920.551 C585.628,945.202 581.692,969.000 572.106,992.315 C560.861,1019.663 550.462,1047.152 538.680,1073.909 C522.654,1110.306 499.774,1143.574 477.728,1174.182 C469.601,1185.464 461.432,1195.656 453.150,1206.623 C449.546,1209.900 445.940,1213.177 442.336,1216.454 C437.533,1222.805 431.907,1230.378 425.623,1235.132 C411.371,1245.916 398.927,1259.242 384.333,1269.540 C368.799,1280.501 352.793,1288.893 336.161,1299.032 C295.355,1323.907 220.319,1359.155 151.337,1338.354 C130.327,1332.019 107.564,1324.413 91.367,1312.795 C52.540,1284.941 33.312,1236.104 18.618,1184.013 C15.341,1165.992 12.063,1147.965 8.787,1129.944 C6.493,1104.387 4.198,1078.822 1.905,1053.265 C1.905,1045.729 1.905,1038.190 1.905,1030.654 C-1.700,1013.838 0.925,990.344 0.922,971.670 C0.916,939.703 -0.289,907.278 5.837,880.245 C6.493,872.053 7.148,863.860 7.803,855.668 C11.124,841.631 10.886,826.124 14.685,811.430 C24.811,772.263 28.986,731.923 41.229,694.445 C54.408,654.103 63.677,612.149 79.570,573.528 C117.874,480.445 153.811,389.826 203.441,309.083 C225.961,272.445 247.444,237.701 272.259,203.894 C281.780,190.923 295.120,180.194 304.701,167.521 C313.300,156.147 324.824,143.605 336.161,135.080 C359.861,117.258 386.034,103.067 415.792,90.842 C425.131,87.005 435.713,84.552 445.285,81.994 C451.825,80.246 461.587,82.405 466.914,79.045 ZM2295.490,79.045 C2289.346,82.712 2277.848,79.616 2270.913,81.994 C2258.933,86.101 2245.995,93.092 2235.521,99.689 C2164.869,144.192 2114.944,224.489 2081.173,306.133 C2064.549,346.325 2060.016,391.313 2048.731,437.864 C2044.041,457.211 2046.326,475.883 2041.849,495.865 C2036.137,521.361 2039.905,552.932 2033.984,579.426 C2033.984,587.945 2033.984,596.467 2033.984,604.986 C2031.191,618.070 2031.097,650.915 2033.984,663.970 C2036.973,677.483 2033.294,692.316 2035.950,704.276 C2036.278,712.467 2036.606,720.661 2036.934,728.852 C2043.757,758.903 2042.591,790.660 2050.697,819.295 C2056.954,841.398 2060.796,865.229 2069.376,886.143 C2097.332,954.285 2127.904,1016.994 2185.382,1055.231 C2204.335,1067.839 2226.802,1076.913 2251.251,1083.740 C2261.142,1086.502 2272.547,1085.410 2282.710,1087.672 C2305.186,1092.675 2345.019,1080.256 2359.392,1074.892 C2428.415,1049.135 2471.129,1000.865 2499.976,935.297 C2507.909,917.267 2516.702,897.432 2524.554,878.279 C2535.975,850.420 2540.760,818.716 2549.132,788.820 C2557.533,758.817 2557.655,726.143 2564.861,695.428 C2567.572,683.875 2566.372,671.796 2568.794,661.021 C2569.121,649.880 2569.449,638.737 2569.777,627.596 C2572.276,615.859 2572.370,593.119 2569.777,581.392 C2569.777,573.856 2569.777,566.318 2569.777,558.782 C2567.153,547.063 2568.408,531.858 2565.844,520.442 C2565.517,514.217 2565.189,507.989 2564.861,501.764 C2560.929,475.879 2556.996,449.986 2553.064,424.101 C2547.821,400.510 2542.577,376.912 2537.334,353.321 C2529.434,329.054 2524.378,303.011 2514.723,279.591 C2503.649,252.728 2490.832,227.064 2476.382,203.894 C2440.893,146.989 2385.141,80.664 2295.490,79.045 ZM1115.764,90.842 C1128.374,90.695 1144.071,88.906 1155.088,91.825 C1224.198,110.132 1264.775,178.861 1291.739,240.268 C1304.201,268.647 1314.917,300.279 1324.182,332.676 C1327.459,349.714 1330.736,366.758 1334.013,383.796 C1337.724,398.936 1335.396,413.269 1338.929,429.017 C1341.275,439.481 1340.414,453.627 1342.861,464.407 C1342.861,470.633 1342.861,476.860 1342.861,483.086 C1345.318,494.371 1345.103,518.584 1343.844,528.307 C1341.177,548.900 1345.982,571.043 1341.878,589.257 C1341.222,601.380 1340.567,613.507 1339.912,625.630 C1331.785,661.044 1332.761,699.174 1323.199,732.785 C1301.626,808.614 1280.008,878.767 1242.584,938.246 C1233.434,952.789 1222.124,966.075 1212.108,979.535 C1181.153,1021.130 1142.442,1051.257 1087.253,1068.994 C1070.692,1074.317 1039.420,1079.006 1017.453,1073.909 C975.045,1064.070 939.238,1051.830 909.311,1029.671 C862.315,994.873 830.484,911.524 811.984,846.821 C805.829,825.293 806.341,801.698 801.170,778.989 C800.842,766.210 800.514,753.428 800.187,740.649 C795.758,721.755 794.538,680.753 799.203,660.038 C801.462,650.011 799.189,639.308 801.170,630.546 C805.513,611.330 801.679,593.034 806.085,574.511 C816.648,530.101 818.289,484.612 831.646,443.763 C843.957,406.115 855.730,369.243 870.970,334.642 C890.425,290.472 917.560,250.691 944.703,213.725 C975.315,172.035 1015.966,136.222 1061.693,109.520 C1073.346,102.715 1088.236,98.385 1101.017,93.791 C1105.373,92.225 1112.060,93.214 1115.764,90.842 ZM2295.490,92.808 C2376.792,92.738 2430.637,157.051 2462.618,207.827 C2479.960,235.359 2493.604,265.854 2506.858,298.269 C2515.061,318.332 2518.920,340.750 2525.537,361.185 C2530.124,382.155 2534.713,403.131 2539.301,424.101 C2543.233,449.986 2547.166,475.879 2551.098,501.764 C2551.425,507.989 2551.753,514.217 2552.081,520.442 C2554.580,531.866 2553.392,547.067 2556.013,558.782 C2556.013,566.318 2556.013,573.856 2556.013,581.392 C2558.506,593.135 2558.609,615.865 2556.013,627.596 C2555.686,638.737 2555.358,649.880 2555.030,661.021 C2546.913,696.993 2548.306,734.398 2539.301,769.158 C2523.511,830.104 2511.101,884.698 2485.230,934.314 C2452.917,996.282 2426.277,1032.136 2359.392,1060.146 C2344.938,1066.199 2305.603,1079.216 2281.727,1073.909 C2271.569,1072.599 2261.408,1071.288 2251.251,1069.977 C2226.946,1063.123 2203.884,1051.792 2185.382,1038.519 C2176.412,1032.083 2166.537,1022.751 2159.822,1013.942 C2155.215,1007.899 2147.684,1003.379 2143.109,997.230 C2133.795,984.711 2124.748,971.296 2116.565,957.907 C2088.866,912.587 2075.469,857.954 2060.528,799.633 C2053.733,773.109 2055.857,744.499 2049.714,717.056 C2049.386,707.554 2049.058,698.049 2048.731,688.547 C2045.254,672.395 2044.022,621.831 2047.748,604.986 C2047.748,596.139 2047.748,587.290 2047.748,578.443 C2053.684,551.870 2049.852,521.179 2055.613,495.865 C2059.177,480.202 2056.798,465.910 2060.528,450.644 C2071.748,404.733 2074.608,358.672 2091.004,318.913 C2124.130,238.590 2166.872,164.126 2233.555,117.384 C2244.433,109.759 2262.826,98.955 2275.828,94.774 C2281.664,92.897 2290.689,95.783 2295.490,92.808 ZM470.846,93.791 C466.358,96.418 457.627,94.340 452.167,95.757 C442.992,98.378 433.815,101.000 424.640,103.621 C396.065,114.422 370.335,128.108 347.958,144.910 C335.592,154.195 322.908,167.909 313.549,180.301 C310.600,182.922 307.650,185.544 304.701,188.165 C293.618,202.827 280.836,216.488 270.293,231.420 C249.718,260.559 232.290,290.738 213.272,321.862 C177.281,380.766 147.601,446.484 118.894,512.578 C108.251,537.083 100.432,562.869 90.384,587.291 C86.706,596.230 85.934,604.781 82.519,613.834 C71.384,643.355 63.107,676.255 53.026,707.225 C51.388,715.089 49.749,722.955 48.111,730.819 C36.860,767.785 33.195,809.662 23.533,849.770 C17.272,875.762 21.686,905.836 15.668,932.347 C13.688,941.071 17.150,955.617 16.651,959.873 C14.699,976.525 12.987,1009.468 16.651,1025.739 C16.651,1033.930 16.651,1042.124 16.651,1050.316 C18.617,1073.907 20.584,1097.505 22.550,1121.096 C25.499,1138.790 28.449,1156.489 31.398,1174.182 C45.502,1223.994 61.662,1271.889 98.249,1299.032 C113.166,1310.098 133.917,1317.259 153.303,1323.608 C219.752,1345.373 296.622,1305.945 335.178,1282.319 C344.557,1276.572 353.855,1272.791 362.705,1266.590 C444.040,1209.598 498.719,1129.175 540.647,1032.620 C557.392,994.058 567.141,953.792 580.954,911.703 C596.071,865.642 603.585,815.653 615.363,765.226 C622.004,736.791 613.489,690.634 603.565,674.784 C582.892,641.764 544.112,663.966 527.866,685.597 C482.853,745.533 467.604,823.397 393.181,854.685 C341.482,876.420 282.244,860.315 263.411,819.295 C245.431,780.131 245.877,696.406 257.512,650.207 C258.168,644.309 258.823,638.410 259.478,632.512 C267.919,599.982 269.964,565.322 280.124,534.205 C291.631,498.960 302.603,463.748 316.499,431.966 C321.660,420.162 324.715,408.315 331.245,397.559 C343.900,376.714 356.554,356.489 370.569,337.592 C392.393,308.166 439.043,265.465 494.441,283.523 C511.889,289.211 523.008,297.823 529.833,313.998 C539.547,337.022 536.324,367.907 544.579,392.643 C548.449,404.239 554.877,410.452 562.275,418.203 C580.667,418.411 604.088,419.492 617.329,411.322 C667.350,380.455 657.540,295.968 675.332,232.403 C679.309,218.197 681.663,202.465 687.129,189.148 C695.178,169.540 704.701,150.579 710.724,128.198 C715.469,110.566 695.363,86.215 679.265,96.740 C670.508,99.688 664.527,108.361 657.636,113.452 C641.679,125.242 629.619,135.648 606.515,140.978 C587.386,145.391 568.176,135.778 557.359,130.164 C529.538,115.724 512.067,94.741 470.846,93.791 ZM470.846,107.554 C501.583,107.383 514.489,121.532 532.782,133.113 C544.753,140.692 555.933,145.189 571.123,149.826 C579.596,152.412 593.591,157.917 606.515,154.741 C632.676,148.313 641.361,142.580 659.602,129.181 C668.138,122.912 676.357,109.752 689.096,108.537 C690.431,109.777 690.834,109.879 693.028,110.503 C700.558,124.622 695.015,134.925 689.096,148.843 C681.469,166.775 674.613,184.044 668.450,202.911 C656.082,240.778 655.922,284.892 645.839,324.812 C638.735,352.936 636.477,381.097 616.346,395.593 C604.976,403.780 584.048,405.835 566.207,404.440 C543.504,364.524 556.921,302.118 517.052,277.624 C510.384,273.528 502.878,273.255 494.441,270.743 C439.660,254.434 391.117,288.607 367.620,319.896 C356.721,334.410 344.145,348.326 334.194,364.134 C306.486,408.153 288.665,461.569 271.276,515.527 C257.025,559.746 253.023,608.632 241.783,656.105 C240.800,666.263 239.816,676.423 238.833,686.581 C227.803,737.224 240.515,812.725 261.445,841.905 C286.640,877.032 348.742,887.630 398.096,867.465 C465.545,839.907 484.003,780.821 520.001,722.954 C531.970,703.714 548.475,671.206 578.005,670.851 C581.860,673.841 586.951,674.777 589.802,678.716 C600.235,693.129 608.097,737.743 601.599,765.226 C588.584,820.273 581.197,873.794 564.241,924.483 C541.428,992.680 518.651,1059.818 483.627,1116.181 C467.250,1142.534 447.829,1165.727 429.556,1189.911 C423.658,1195.481 417.758,1201.053 411.860,1206.623 C393.981,1224.495 374.589,1242.932 352.874,1256.760 C341.288,1264.137 329.447,1269.148 317.482,1276.421 C293.921,1290.743 265.738,1303.406 236.867,1311.812 C191.962,1324.886 129.220,1305.165 105.131,1287.235 C86.792,1273.585 74.577,1251.617 64.824,1229.234 C57.504,1212.436 50.649,1193.481 45.161,1174.182 C42.212,1156.489 39.262,1138.790 36.313,1121.096 C32.144,1103.512 35.355,1084.257 31.398,1067.028 C31.398,1061.458 31.398,1055.886 31.398,1050.316 C26.133,1026.481 28.512,980.044 30.415,957.907 C30.960,951.565 27.621,940.302 29.432,932.347 C35.359,906.311 31.168,875.379 37.297,849.770 C48.227,804.101 50.905,757.616 64.824,715.089 C72.943,690.280 79.535,663.242 88.418,639.393 C90.056,633.168 91.695,626.940 93.334,620.715 C102.787,597.761 109.210,573.244 118.894,549.934 C150.638,473.524 182.961,397.785 224.087,330.710 C246.214,294.621 266.534,259.759 290.938,226.505 C299.404,214.969 309.746,204.621 318.465,193.081 C322.724,189.149 326.985,185.216 331.245,181.284 C338.938,171.110 349.621,160.382 359.755,152.775 C381.680,136.317 409.598,123.771 437.421,113.452 C444.047,110.994 451.386,110.119 458.066,108.537 C462.378,107.515 467.831,109.430 470.846,107.554 ZM3693.467,137.046 C3683.637,139.667 3673.804,142.289 3663.973,144.910 C3648.790,151.476 3631.045,166.473 3616.784,175.385 C3608.901,180.313 3598.722,184.102 3595.156,193.081 C3589.125,208.263 3597.566,257.673 3602.038,274.675 C3616.036,327.894 3622.100,384.029 3637.430,434.915 C3643.612,455.436 3644.835,480.207 3654.142,497.832 C3657.506,504.200 3664.067,507.651 3668.889,512.578 C3742.127,518.152 3776.620,453.822 3794.726,397.559 C3800.892,378.401 3802.017,358.277 3806.524,337.592 C3811.804,313.358 3806.650,267.116 3801.608,248.132 C3798.922,238.019 3798.851,229.190 3795.710,219.623 C3780.500,173.312 3756.000,136.621 3693.467,137.046 ZM3693.467,150.809 C3708.803,150.703 3721.136,151.206 3731.808,155.724 C3803.209,185.954 3806.177,341.849 3773.098,418.203 C3765.797,435.056 3756.031,451.327 3745.571,465.390 C3743.278,467.356 3740.983,469.323 3738.689,471.289 C3725.578,488.463 3703.178,502.043 3673.804,499.798 C3672.248,497.419 3669.373,496.183 3667.906,493.899 C3658.433,479.148 3656.553,453.688 3651.193,434.915 C3641.283,400.209 3635.656,361.330 3625.632,325.795 C3622.661,315.262 3623.486,306.109 3620.717,295.320 C3613.391,266.782 3604.393,228.951 3607.936,197.996 C3625.676,185.199 3645.090,172.176 3663.973,160.639 C3671.547,156.013 3687.072,155.215 3693.467,150.809 ZM3694.450,165.555 C3687.569,167.848 3680.686,170.143 3673.804,172.436 C3661.958,178.798 3650.488,187.690 3639.396,195.047 C3629.517,201.599 3621.292,200.041 3621.700,217.657 C3624.977,238.300 3628.254,258.948 3631.531,279.591 C3644.026,328.002 3649.903,379.543 3663.973,426.068 C3668.192,440.017 3670.637,453.702 3674.788,466.373 C3677.679,475.201 3675.695,485.851 3687.568,486.035 C3690.490,483.990 3694.695,484.610 3698.382,483.086 C3706.750,479.625 3714.983,473.591 3721.977,468.340 C3751.292,446.326 3766.030,394.872 3776.047,352.338 C3778.240,343.026 3775.917,334.713 3778.014,324.812 C3780.088,315.013 3780.141,296.267 3778.014,286.472 C3775.918,276.825 3778.207,268.969 3776.047,259.929 C3769.880,234.111 3763.869,212.633 3751.470,194.064 C3744.936,184.279 3737.101,174.353 3725.909,169.487 C3717.300,165.744 3707.042,165.441 3694.450,165.555 ZM1124.611,183.250 C1119.685,186.600 1111.583,185.678 1105.932,188.165 C1097.521,191.868 1085.749,201.665 1080.372,208.810 C1039.697,262.861 1025.534,329.865 1005.656,405.423 C1002.379,426.721 999.101,448.025 995.825,469.323 C995.497,476.859 995.169,484.397 994.842,491.933 C992.485,502.963 991.455,521.115 993.858,532.239 C996.428,544.132 993.181,554.830 995.825,565.663 C1006.502,609.418 1016.955,639.624 1060.710,650.207 C1069.421,652.314 1077.640,648.005 1083.321,646.275 C1104.692,639.764 1117.875,628.841 1129.527,612.850 C1134.853,605.541 1141.422,598.146 1146.240,590.240 C1166.408,557.144 1175.070,513.619 1186.547,472.272 C1191.057,456.024 1191.310,440.954 1195.395,424.101 C1198.429,411.588 1198.385,395.346 1201.294,381.830 C1201.294,373.966 1201.294,366.100 1201.294,358.236 C1202.526,352.395 1202.557,341.468 1201.294,335.625 C1200.966,324.485 1200.638,313.341 1200.311,302.201 C1188.552,248.893 1188.900,183.065 1124.611,183.250 ZM2293.524,188.165 C2290.395,190.293 2285.310,189.208 2281.727,191.114 C2278.045,193.073 2271.462,199.536 2268.946,202.911 C2241.083,240.297 2233.411,293.106 2220.774,346.439 C2217.007,362.340 2218.265,378.970 2214.876,394.609 C2214.876,398.541 2214.876,402.474 2214.876,406.406 C2208.125,438.145 2212.739,501.761 2219.791,528.307 C2230.965,570.364 2233.147,593.605 2265.014,615.800 C2273.341,621.599 2290.811,631.337 2307.288,627.596 C2323.115,624.004 2336.663,620.019 2347.595,611.867 C2365.679,598.383 2369.804,572.803 2377.088,547.968 C2398.832,473.834 2388.365,347.412 2368.240,280.574 C2356.213,240.628 2343.986,188.098 2293.524,188.165 ZM1124.611,197.013 C1178.279,196.858 1176.861,257.586 1186.547,302.201 C1186.875,313.341 1187.203,324.485 1187.530,335.625 C1191.615,355.493 1186.837,400.776 1182.615,418.203 C1179.100,432.713 1179.653,445.460 1175.733,459.492 C1161.713,509.676 1150.849,557.383 1125.595,595.155 C1114.254,612.116 1102.994,624.742 1082.338,632.512 C1077.273,634.417 1069.074,638.514 1060.710,636.444 C1026.883,628.071 1017.829,599.757 1009.588,565.663 C1006.962,554.799 1010.065,544.199 1007.622,532.239 C1005.548,522.085 1006.142,490.211 1008.605,479.153 C1013.670,456.414 1012.715,432.596 1018.436,410.339 C1030.686,362.678 1041.169,316.362 1058.743,275.658 C1067.465,255.459 1081.392,222.777 1097.085,210.776 C1101.941,207.061 1108.128,202.340 1113.797,199.962 C1117.358,198.468 1121.629,198.959 1124.611,197.013 ZM2293.524,201.928 C2333.885,202.455 2344.769,248.166 2354.477,280.574 C2372.925,342.163 2384.904,468.390 2365.291,539.120 C2358.325,564.243 2354.955,589.583 2336.781,603.020 C2329.119,608.685 2318.111,611.398 2307.288,613.834 C2292.467,617.168 2279.296,608.942 2271.896,604.003 C2247.250,587.555 2242.139,561.376 2233.555,528.307 C2227.768,506.014 2226.676,479.647 2226.673,451.627 C2226.672,442.395 2225.996,430.732 2227.656,423.118 C2228.780,417.964 2227.779,410.342 2228.639,406.406 C2228.639,402.147 2228.639,397.886 2228.639,393.626 C2232.018,378.437 2230.774,362.011 2234.538,346.439 C2248.433,288.943 2253.940,238.641 2289.592,202.911 C2291.880,202.719 2292.370,202.722 2293.524,201.928 ZM1125.595,211.759 C1117.432,217.808 1108.041,219.475 1102.000,227.488 C1065.987,275.262 1051.982,339.676 1034.166,406.406 C1027.743,430.463 1028.886,456.306 1023.352,481.119 C1023.024,495.536 1022.696,509.958 1022.368,524.374 C1022.361,567.541 1028.274,613.409 1062.676,621.698 C1070.990,623.701 1078.728,618.228 1083.321,615.800 C1101.613,606.129 1110.084,591.903 1120.679,574.511 C1134.509,551.807 1140.932,526.239 1150.172,497.832 C1164.279,454.465 1172.771,407.147 1172.784,350.371 C1172.793,307.158 1169.843,268.360 1157.054,238.302 C1151.139,224.400 1145.228,211.828 1125.595,211.759 ZM2295.490,216.674 C2289.632,225.909 2281.479,234.500 2276.811,245.183 C2264.089,274.299 2258.670,307.700 2250.267,341.524 C2247.974,359.873 2245.679,378.227 2243.386,396.576 C2243.386,400.507 2243.386,404.441 2243.386,408.372 C2238.180,432.732 2240.120,487.269 2245.352,509.628 C2246.007,515.526 2246.663,521.426 2247.318,527.324 C2253.777,551.393 2259.708,572.235 2274.845,587.291 C2280.734,593.148 2292.087,602.449 2306.304,599.088 C2341.632,590.736 2342.604,567.251 2351.527,533.222 C2369.221,465.747 2358.487,339.731 2339.730,282.540 C2332.247,259.724 2322.668,217.651 2295.490,216.674 Z" class="cls-1"/>
</svg>
