<?xml version="1.0" encoding="UTF-8"?>
<!DOCTYPE svg PUBLIC "-//W3C//DTD SVG 1.1//EN" "http://www.w3.org/Graphics/SVG/1.1/DTD/svg11.dtd">
<svg xmlns="http://www.w3.org/2000/svg" version="1.1" width="1024px" height="1024px" style="shape-rendering:geometricPrecision; text-rendering:geometricPrecision; image-rendering:optimizeQuality; fill-rule:evenodd; clip-rule:evenodd" xmlns:xlink="http://www.w3.org/1999/xlink">
<g><path style="opacity:0.996" fill="#1ed760" d="M 494.5,0.5 C 654.733,-1.10459 788.567,56.8954 896,174.5C 996.473,293.647 1036.81,430.98 1017,586.5C 993.84,727.062 925.674,839.896 812.5,925C 681.267,1016.44 537.6,1043.44 381.5,1006C 246.151,968.274 142.317,889.441 70,769.5C -0.0475334,644.79 -17.0475,513.123 19,374.5C 58.1276,241.659 136.961,139.825 255.5,69C 329.667,26.7753 409.334,3.94195 494.5,0.5 Z M 409.5,271.5 C 519.528,268.766 627.194,283.266 732.5,315C 779.646,329.598 824.312,349.598 866.5,375C 882.203,388.444 887.703,405.278 883,425.5C 873.712,450.231 855.879,461.397 829.5,459C 826.107,458.202 822.774,457.202 819.5,456C 756.361,420.395 689.028,396.062 617.5,383C 529.107,366.418 440.107,362.085 350.5,370C 303.012,374.298 256.345,382.964 210.5,396C 183.436,395.938 166.603,382.771 160,356.5C 158.041,332.484 167.874,315.317 189.5,305C 235.91,291.051 283.243,281.718 331.5,277C 357.612,274.515 383.612,272.681 409.5,271.5 Z M 395.5,447.5 C 513.476,443.383 626.476,464.883 734.5,512C 756.297,522.062 777.297,533.395 797.5,546C 815.075,561.874 817.908,580.04 806,600.5C 793.567,615.484 778.067,619.984 759.5,614C 686.512,570.892 607.846,543.892 523.5,533C 426.387,519.413 330.72,526.08 236.5,553C 210.798,552.634 196.464,539.634 193.5,514C 194.296,500.069 200.296,489.069 211.5,481C 236.494,471.667 262.161,464.667 288.5,460C 324.056,453.587 359.722,449.421 395.5,447.5 Z M 419.5,613.5 C 522.261,610.883 619.261,633.05 710.5,680C 719.665,685.081 728.665,690.415 737.5,696C 749.203,706.312 752.37,718.812 747,733.5C 739.038,748.064 726.871,753.898 710.5,751C 691.481,740.49 672.147,730.49 652.5,721C 582.226,690.545 508.726,675.712 432,676.5C 369.305,677.316 307.472,684.983 246.5,699.5C 227.533,697.367 217.199,686.867 215.5,668C 215.839,653.329 222.839,643.329 236.5,638C 296.832,623.689 357.832,615.523 419.5,613.5 Z"/></g>
</svg>
